# Exported from ProBuilder
# http://www.procore3d.com/probuilder
# 07/27/2018 05:00:55

mtllib ./Arrow4.mtl
o Arrow4

g Prism (2)
v -2.545171 11.80589 2.110001
v -2.545171 11.84569 2.110001
v -2.943187 11.82579 1.928807
v -2.545171 11.84569 2.110001
v -2.545171 11.84569 1.711985
v -2.943187 11.82579 1.928807
v -2.943187 11.82579 1.43482
v -2.545171 11.84569 1.711985
v -2.545171 11.80589 1.711985
v -2.943187 11.82579 1.43482
v -2.545171 11.80589 1.711985
v -2.545171 11.80589 2.110001
v -2.943187 11.82579 1.43482
v -2.943187 11.82579 1.928807
v -2.545171 11.80589 2.110001
v -2.545171 11.84569 2.110001
v -2.545171 11.80589 1.711985
v -2.545171 11.84569 1.711985

vn -0.1649096 -1.965876E-08 0.3622445
vn -0.1649096 -1.965876E-08 0.3622445
vn -0.1649096 -1.965876E-08 0.3622445
vn -0.0198759 0.3975186 0
vn -0.0198759 0.3975186 0
vn -0.0198759 0.3975186 0
vn -0.0198759 0.3975186 0
vn 0.22745 2.711415E-08 -0.3266233
vn 0.22745 2.711415E-08 -0.3266233
vn 0.22745 2.711415E-08 -0.3266233
vn -0.01987599 -0.3975186 0
vn -0.01987599 -0.3975186 0
vn -0.01987599 -0.3975186 0
vn -0.01987599 -0.3975186 0
vn 0.3980155 4.744714E-08 0
vn 0.3980155 4.744714E-08 0
vn 0.3980155 4.744714E-08 0
vn 0.3980155 4.744714E-08 0

vt 0 0
vt 0.1 0
vt 0.05 1.098748
vt 0 -0.004993762
vt 1 -0.004993762
vt 0.4552438 0.9962555
vt 1.696368 0.9962555
vt -0.1 0.5714602
vt 0 0.5714602
vt -0.05 1.790036
vt -1 0
vt 0 0
vt -1.696368 1.001249
vt -0.4552438 1.001249
vt 0 0
vt -0.1 0
vt 0 1
vt -0.1 1

g Prism (2)_0
usemtl Wooden
f 7/7/7 6/6/6 4/4/4 5/5/5
f 14/14/14 13/13/13 11/11/11 12/12/12
f 17/17/17 18/18/18 16/16/16 15/15/15

g Prism (2)_1
usemtl Wooden
f 1/1/1 2/2/2 3/3/3
f 8/8/8 9/9/9 10/10/10

g Prism
v -2.545171 11.80589 2.110001
v -2.584973 11.80589 2.110001
v -2.565072 11.40787 1.928806
v -2.584973 11.80589 2.110001
v -2.584973 11.80589 1.711985
v -2.565072 11.40787 1.928806
v -2.565072 11.40787 1.43482
v -2.584973 11.80589 1.711985
v -2.545171 11.80589 1.711985
v -2.565072 11.40787 1.43482
v -2.545171 11.80589 1.711985
v -2.545171 11.80589 2.110001
v -2.565072 11.40787 1.43482
v -2.565072 11.40787 1.928806
v -2.545171 11.80589 2.110001
v -2.584973 11.80589 2.110001
v -2.545171 11.80589 1.711985
v -2.584973 11.80589 1.711985

vn 0 -0.1649097 0.3622447
vn 0 -0.1649097 0.3622447
vn 0 -0.1649097 0.3622447
vn -0.3975184 -0.01987595 0
vn -0.3975185 -0.01987595 0
vn -0.3975185 -0.01987595 0
vn -0.3975184 -0.01987595 0
vn 0 0.2274501 -0.3266234
vn 0 0.2274501 -0.3266234
vn 0 0.2274501 -0.3266234
vn 0.3975184 -0.01987595 0
vn 0.3975185 -0.01987595 0
vn 0.3975185 -0.01987595 0
vn 0.3975184 -0.01987595 0
vn 0 0.3980156 0
vn 0 0.3980156 0
vn 0 0.3980156 0
vn 0 0.3980156 0

vt 0 0
vt 0.1 0
vt 0.05 1.098748
vt 0 -0.004993762
vt 1 -0.004993762
vt 0.4552438 0.9962555
vt 1.696368 0.9962555
vt -0.1 0.5714602
vt 0 0.5714602
vt -0.05 1.790036
vt -1 0
vt 0 0
vt -1.696368 1.001249
vt -0.4552438 1.001249
vt 0 0
vt -0.1 0
vt 0 1
vt -0.1 1

g Prism_0
usemtl Wooden
f 25/25/25 24/24/24 22/22/22 23/23/23
f 32/32/32 31/31/31 29/29/29 30/30/30
f 35/35/35 36/36/36 34/34/34 33/33/33

g Prism_1
usemtl Wooden
f 19/19/19 20/20/20 21/21/21
f 26/26/26 27/27/27 28/28/28

g Cylinder
v -2.693706 11.80589 1.705701
v -2.693706 11.80589 2.869352
v -2.619439 11.67725 1.705701
v -2.619439 11.67725 2.869352
v -2.619439 11.67725 1.705701
v -2.619439 11.67725 2.869352
v -2.470904 11.67725 1.705701
v -2.470904 11.67725 2.869352
v -2.470904 11.67725 1.705701
v -2.470904 11.67725 2.869352
v -2.396636 11.80589 1.705701
v -2.396636 11.80589 2.869352
v -2.396636 11.80589 1.705701
v -2.396636 11.80589 2.869352
v -2.470904 11.93453 1.705701
v -2.470904 11.93453 2.869352
v -2.470904 11.93453 1.705701
v -2.470904 11.93453 2.869352
v -2.619439 11.93453 1.705701
v -2.619439 11.93453 2.869352
v -2.619439 11.93453 1.705701
v -2.619439 11.93453 2.869352
v -2.693706 11.80589 1.705701
v -2.693706 11.80589 2.869352
v -2.693706 11.80589 2.869352
v -2.693706 11.80589 4.033002
v -2.619439 11.67725 2.869352
v -2.619439 11.67725 4.033002
v -2.619439 11.67725 2.869352
v -2.619439 11.67725 4.033002
v -2.470904 11.67725 2.869352
v -2.470904 11.67725 4.033002
v -2.470904 11.67725 2.869352
v -2.470904 11.67725 4.033002
v -2.396636 11.80589 2.869352
v -2.396636 11.80589 4.033002
v -2.396636 11.80589 2.869352
v -2.396636 11.80589 4.033002
v -2.470904 11.93453 2.869352
v -2.470904 11.93453 4.033002
v -2.470904 11.93453 2.869352
v -2.470904 11.93453 4.033002
v -2.619439 11.93453 2.869352
v -2.619439 11.93453 4.033002
v -2.619439 11.93453 2.869352
v -2.619439 11.93453 4.033002
v -2.693706 11.80589 2.869352
v -2.693706 11.80589 4.033002
v -2.693706 11.80589 1.705701
v -2.545171 11.80589 1.705701
v -2.619439 11.67725 1.705701
v -2.693706 11.80589 4.033002
v -2.545171 11.80589 4.033002
v -2.619439 11.67725 4.033002
v -2.619439 11.67725 1.705701
v -2.545171 11.80589 1.705701
v -2.470904 11.67725 1.705701
v -2.619439 11.67725 4.033002
v -2.545171 11.80589 4.033002
v -2.470904 11.67725 4.033002
v -2.470904 11.67725 1.705701
v -2.545171 11.80589 1.705701
v -2.396636 11.80589 1.705701
v -2.470904 11.67725 4.033002
v -2.545171 11.80589 4.033002
v -2.396636 11.80589 4.033002
v -2.396636 11.80589 1.705701
v -2.545171 11.80589 1.705701
v -2.470904 11.93453 1.705701
v -2.396636 11.80589 4.033002
v -2.545171 11.80589 4.033002
v -2.470904 11.93453 4.033002
v -2.470904 11.93453 1.705701
v -2.545171 11.80589 1.705701
v -2.619439 11.93453 1.705701
v -2.470904 11.93453 4.033002
v -2.545171 11.80589 4.033002
v -2.619439 11.93453 4.033002
v -2.619439 11.93453 1.705701
v -2.545171 11.80589 1.705701
v -2.693706 11.80589 1.705701
v -2.619439 11.93453 4.033002
v -2.545171 11.80589 4.033002
v -2.693706 11.80589 4.033002

vn -0.4287838 1.475564E-08 1.759009E-15
vn -0.4287838 1.475564E-08 1.759009E-15
vn -0.2143919 -0.3713379 -4.426692E-08
vn -0.2143919 -0.3713379 -4.426692E-08
vn -0.2143919 -0.3713379 -4.426692E-08
vn -0.2143919 -0.3713379 -4.426692E-08
vn 0.2143919 -0.3713379 -4.426692E-08
vn 0.2143919 -0.3713379 -4.426692E-08
vn 0.2143919 -0.3713379 -4.426692E-08
vn 0.2143919 -0.3713379 -4.426692E-08
vn 0.4287838 2.213346E-08 2.638514E-15
vn 0.4287838 2.213346E-08 2.638514E-15
vn 0.4287838 2.213346E-08 2.638514E-15
vn 0.4287838 2.213346E-08 2.638514E-15
vn 0.2143919 0.3713379 4.426692E-08
vn 0.2143919 0.3713379 4.426692E-08
vn 0.2143919 0.3713379 4.426692E-08
vn 0.2143919 0.3713379 4.426692E-08
vn -0.2143919 0.3713379 4.426692E-08
vn -0.2143919 0.3713379 4.426692E-08
vn -0.2143919 0.3713379 4.426692E-08
vn -0.2143919 0.3713379 4.426692E-08
vn -0.4287838 1.475564E-08 1.759009E-15
vn -0.4287838 1.475564E-08 1.759009E-15
vn -0.4287838 1.475564E-08 1.759009E-15
vn -0.4287838 1.475564E-08 1.759009E-15
vn -0.2143919 -0.3713379 -4.426692E-08
vn -0.2143919 -0.3713379 -4.426692E-08
vn -0.2143919 -0.3713379 -4.426692E-08
vn -0.2143919 -0.3713379 -4.426692E-08
vn 0.2143919 -0.3713379 -4.426692E-08
vn 0.2143919 -0.3713379 -4.426692E-08
vn 0.2143919 -0.3713379 -4.426692E-08
vn 0.2143919 -0.3713379 -4.426692E-08
vn 0.4287838 2.213346E-08 2.638514E-15
vn 0.4287838 2.213346E-08 2.638514E-15
vn 0.4287838 2.213346E-08 2.638514E-15
vn 0.4287838 2.213346E-08 2.638514E-15
vn 0.2143919 0.3713379 4.426692E-08
vn 0.2143919 0.3713379 4.426692E-08
vn 0.2143919 0.3713379 4.426692E-08
vn 0.2143919 0.3713379 4.426692E-08
vn -0.2143919 0.3713379 4.426692E-08
vn -0.2143919 0.3713379 4.426692E-08
vn -0.2143919 0.3713379 4.426692E-08
vn -0.2143919 0.3713379 4.426692E-08
vn -0.4287838 1.475564E-08 1.759009E-15
vn -0.4287838 1.475564E-08 1.759009E-15
vn 0 9.247864E-08 -0.7757672
vn 0 9.247864E-08 -0.7757672
vn 0 9.247864E-08 -0.7757672
vn 0 -9.247864E-08 0.7757672
vn 0 -9.247864E-08 0.7757672
vn 0 -9.247864E-08 0.7757672
vn 0 9.247864E-08 -0.7757672
vn 0 9.247864E-08 -0.7757672
vn 0 9.247864E-08 -0.7757672
vn 0 -9.247864E-08 0.7757672
vn 0 -9.247864E-08 0.7757672
vn 0 -9.247864E-08 0.7757672
vn 0 9.247864E-08 -0.7757672
vn 0 9.247864E-08 -0.7757672
vn 0 9.247864E-08 -0.7757672
vn 0 -9.247864E-08 0.7757672
vn 0 -9.247864E-08 0.7757672
vn 0 -9.247864E-08 0.7757672
vn 0 9.247864E-08 -0.7757672
vn 0 9.247864E-08 -0.7757672
vn 0 9.247864E-08 -0.7757672
vn 0 -9.247864E-08 0.7757672
vn 0 -9.247864E-08 0.7757672
vn 0 -9.247864E-08 0.7757672
vn 0 9.247864E-08 -0.7757672
vn 0 9.247864E-08 -0.7757672
vn 0 9.247864E-08 -0.7757672
vn 0 -9.247864E-08 0.7757672
vn 0 -9.247864E-08 0.7757672
vn 0 -9.247864E-08 0.7757672
vn 0 9.247864E-08 -0.7757672
vn 0 9.247864E-08 -0.7757672
vn 0 9.247864E-08 -0.7757672
vn 0 -9.247864E-08 0.7757672
vn 0 -9.247864E-08 0.7757672
vn 0 -9.247864E-08 0.7757672

vt -0.15 0
vt -0.15 1.5
vt 0.15 0
vt 0.15 1.5
vt -0.15 0
vt -0.15 1.5
vt 0.15 0
vt 0.15 1.5
vt -0.15 0
vt -0.15 1.5
vt 0.15 0
vt 0.15 1.5
vt -0.15 0
vt -0.15 1.5
vt 0.15 0
vt 0.15 1.5
vt -0.15 0
vt -0.15 1.5
vt 0.15 0
vt 0.15 1.5
vt -0.15 0
vt -0.15 1.5
vt 0.15 0
vt 0.15 1.5
vt -0.15 1.5
vt -0.15 3
vt 0.15 1.5
vt 0.15 3
vt -0.15 1.5
vt -0.15 3
vt 0.15 1.5
vt 0.15 3
vt -0.15 1.5
vt -0.15 3
vt 0.15 1.5
vt 0.15 3
vt -0.15 1.5
vt -0.15 3
vt 0.15 1.5
vt 0.15 3
vt -0.15 1.5
vt -0.15 3
vt 0.15 1.5
vt 0.15 3
vt -0.15 1.5
vt -0.15 3
vt 0.15 1.5
vt 0.15 3
vt -0.3 0
vt 0 0
vt -0.15 0.2598076
vt 0.3 0
vt 0 0
vt 0.15 0.2598076
vt -0.15 0.2598076
vt 0 0
vt 0.15 0.2598076
vt 0.15 0.2598076
vt 0 0
vt -0.15 0.2598076
vt 0.15 0.2598076
vt 0 0
vt 0.3 -2.622683E-08
vt -0.15 0.2598076
vt 0 0
vt -0.3 -2.622683E-08
vt 0.3 -2.622683E-08
vt 0 0
vt 0.15 -0.2598076
vt -0.3 -2.622683E-08
vt 0 0
vt -0.15 -0.2598076
vt 0.15 -0.2598076
vt 0 0
vt -0.15 -0.2598076
vt -0.15 -0.2598076
vt 0 0
vt 0.15 -0.2598076
vt -0.15 -0.2598076
vt 0 0
vt -0.3 0
vt 0.15 -0.2598076
vt 0 0
vt 0.3 0

g Cylinder_0
usemtl Wooden
f 39/39/39 40/40/40 38/38/38 37/37/37
f 43/43/43 44/44/44 42/42/42 41/41/41
f 47/47/47 48/48/48 46/46/46 45/45/45
f 51/51/51 52/52/52 50/50/50 49/49/49
f 55/55/55 56/56/56 54/54/54 53/53/53
f 59/59/59 60/60/60 58/58/58 57/57/57
f 63/63/63 64/64/64 62/62/62 61/61/61
f 67/67/67 68/68/68 66/66/66 65/65/65
f 71/71/71 72/72/72 70/70/70 69/69/69
f 75/75/75 76/76/76 74/74/74 73/73/73
f 79/79/79 80/80/80 78/78/78 77/77/77
f 83/83/83 84/84/84 82/82/82 81/81/81

g Cylinder_1
usemtl Wooden
f 85/85/85 86/86/86 87/87/87
f 91/91/91 92/92/92 93/93/93
f 97/97/97 98/98/98 99/99/99
f 103/103/103 104/104/104 105/105/105
f 109/109/109 110/110/110 111/111/111
f 115/115/115 116/116/116 117/117/117
f 90/90/90 89/89/89 88/88/88
f 96/96/96 95/95/95 94/94/94
f 102/102/102 101/101/101 100/100/100
f 108/108/108 107/107/107 106/106/106
f 114/114/114 113/113/113 112/112/112
f 120/120/120 119/119/119 118/118/118

g Prism (1)
v -2.545171 11.80589 2.110001
v -2.50537 11.80589 2.110001
v -2.52527 12.20391 1.928806
v -2.50537 11.80589 2.110001
v -2.50537 11.80589 1.711985
v -2.52527 12.20391 1.928806
v -2.52527 12.20391 1.43482
v -2.50537 11.80589 1.711985
v -2.545171 11.80589 1.711985
v -2.52527 12.20391 1.43482
v -2.545171 11.80589 1.711985
v -2.545171 11.80589 2.110001
v -2.52527 12.20391 1.43482
v -2.52527 12.20391 1.928806
v -2.545171 11.80589 2.110001
v -2.50537 11.80589 2.110001
v -2.545171 11.80589 1.711985
v -2.50537 11.80589 1.711985

vn 0 0.1649095 0.3622447
vn 0 0.1649095 0.3622447
vn 0 0.1649095 0.3622447
vn 0.3975192 0.01987593 0
vn 0.3975192 0.01987593 0
vn 0.3975192 0.01987593 0
vn 0.3975192 0.01987593 0
vn 0 -0.2274499 -0.3266234
vn 0 -0.2274499 -0.3266234
vn 0 -0.2274499 -0.3266234
vn -0.3975192 0.01987593 0
vn -0.3975192 0.01987593 0
vn -0.3975192 0.01987593 0
vn -0.3975192 0.01987593 0
vn 0 -0.3980152 0
vn 0 -0.3980152 0
vn 0 -0.3980152 0
vn 0 -0.3980152 0

vt 0 0
vt 0.1 0
vt 0.05 1.098748
vt 0 -0.004993762
vt 1 -0.004993762
vt 0.4552438 0.9962555
vt 1.696368 0.9962555
vt -0.1 0.5714602
vt 0 0.5714602
vt -0.05 1.790036
vt -1 0
vt 0 0
vt -1.696368 1.001249
vt -0.4552438 1.001249
vt 0 0
vt -0.1 0
vt 0 1
vt -0.1 1

g Prism (1)_0
usemtl Wooden
f 127/127/127 126/126/126 124/124/124 125/125/125
f 134/134/134 133/133/133 131/131/131 132/132/132
f 137/137/137 138/138/138 136/136/136 135/135/135

g Prism (1)_1
usemtl Wooden
f 121/121/121 122/122/122 123/123/123
f 128/128/128 129/129/129 130/130/130

g Cone
v -2.8991 11.80589 3.990002
v -2.72213 11.49937 3.990002
v -2.54516 11.80589 4.697882
v -2.8991 11.80589 3.990002
v -2.72213 11.49937 3.990002
v -2.54516 11.80589 3.990002
v -2.72213 11.49937 3.990002
v -2.36819 11.49937 3.990002
v -2.54516 11.80589 4.697882
v -2.72213 11.49937 3.990002
v -2.36819 11.49937 3.990002
v -2.54516 11.80589 3.990002
v -2.36819 11.49937 3.990002
v -2.19122 11.80589 3.990002
v -2.54516 11.80589 4.697882
v -2.36819 11.49937 3.990002
v -2.19122 11.80589 3.990002
v -2.54516 11.80589 3.990002
v -2.19122 11.80589 3.990002
v -2.36819 12.11241 3.990002
v -2.54516 11.80589 4.697882
v -2.19122 11.80589 3.990002
v -2.36819 12.11241 3.990002
v -2.54516 11.80589 3.990002
v -2.36819 12.11241 3.990002
v -2.72213 12.11241 3.990002
v -2.54516 11.80589 4.697882
v -2.36819 12.11241 3.990002
v -2.72213 12.11241 3.990002
v -2.54516 11.80589 3.990002
v -2.72213 12.11241 3.990002
v -2.8991 11.80589 3.990002
v -2.54516 11.80589 4.697882
v -2.72213 12.11241 3.990002
v -2.8991 11.80589 3.990002
v -2.54516 11.80589 3.990002

vn -0.2812829 -0.1623989 0.1406415
vn -0.2812829 -0.1623989 0.1406415
vn -0.2812829 -0.1623989 0.1406415
vn 0 4.219294E-08 -0.3539401
vn 0 4.219294E-08 -0.3539401
vn 0 4.219294E-08 -0.3539401
vn 1.935944E-08 -0.3247977 0.1406415
vn 1.935944E-08 -0.3247977 0.1406415
vn 1.935944E-08 -0.3247977 0.1406415
vn 0 4.219294E-08 -0.3539401
vn 0 4.219294E-08 -0.3539401
vn 0 4.219294E-08 -0.3539401
vn 0.2812829 -0.1623989 0.1406415
vn 0.2812829 -0.1623989 0.1406415
vn 0.2812829 -0.1623989 0.1406415
vn 0 4.219294E-08 -0.3539401
vn 0 4.219294E-08 -0.3539401
vn 0 4.219294E-08 -0.3539401
vn 0.2812828 0.1623989 0.1406415
vn 0.2812828 0.1623989 0.1406415
vn 0.2812828 0.1623989 0.1406415
vn 0 4.219294E-08 -0.3539401
vn 0 4.219294E-08 -0.3539401
vn 0 4.219294E-08 -0.3539401
vn 0 0.3247976 0.1406416
vn 0 0.3247976 0.1406416
vn 0 0.3247976 0.1406416
vn 0 4.219294E-08 -0.3539401
vn 0 4.219294E-08 -0.3539401
vn 0 4.219294E-08 -0.3539401
vn -0.2812828 0.1623988 0.1406415
vn -0.2812828 0.1623988 0.1406415
vn -0.2812828 0.1623988 0.1406415
vn 0 4.219294E-08 -0.3539401
vn 0 4.219294E-08 -0.3539401
vn 0 4.219294E-08 -0.3539401

vt 0 0
vt 1 -2.692701E-09
vt 0.5 2.17945
vt 0 0
vt 0.5 0.8660254
vt 1 0
vt 0.4999999 -0.3441237
vt 1.5 -0.3441237
vt 1 1.835326
vt 0.5 0.8660254
vt 1.5 0.8660254
vt 1 0
vt 2.692235E-08 -0.6882473
vt 1 -0.6882473
vt 0.5 1.491202
vt 1.5 0.8660254
vt 2 -8.742278E-08
vt 1 0
vt -1 -0.6882472
vt -5.672467E-08 -0.6882472
vt -0.5000001 1.491202
vt 2 -8.742278E-08
vt 1.5 -0.8660254
vt 1 0
vt -1.5 -0.3441237
vt -0.5000001 -0.3441237
vt -1 1.835326
vt 1.5 -0.8660254
vt 0.5000001 -0.8660254
vt 1 0
vt -1 -1.728187E-08
vt 0 0
vt -0.5000001 2.17945
vt 0.5000001 -0.8660254
vt 0 0
vt 1 0

g Cone
usemtl Wooden
f 139/139/139 140/140/140 141/141/141
f 144/144/144 143/143/143 142/142/142
f 145/145/145 146/146/146 147/147/147
f 150/150/150 149/149/149 148/148/148
f 151/151/151 152/152/152 153/153/153
f 156/156/156 155/155/155 154/154/154
f 157/157/157 158/158/158 159/159/159
f 162/162/162 161/161/161 160/160/160
f 163/163/163 164/164/164 165/165/165
f 168/168/168 167/167/167 166/166/166
f 169/169/169 170/170/170 171/171/171
f 174/174/174 173/173/173 172/172/172

g Prism (3)
v -2.545171 11.80589 2.110001
v -2.545171 11.76609 2.110001
v -2.147156 11.78599 1.928807
v -2.545171 11.76609 2.110001
v -2.545171 11.76609 1.711985
v -2.147156 11.78599 1.928807
v -2.147156 11.78599 1.43482
v -2.545171 11.76609 1.711985
v -2.545171 11.80589 1.711985
v -2.147156 11.78599 1.43482
v -2.545171 11.80589 1.711985
v -2.545171 11.80589 2.110001
v -2.147156 11.78599 1.43482
v -2.147156 11.78599 1.928807
v -2.545171 11.80589 2.110001
v -2.545171 11.76609 2.110001
v -2.545171 11.80589 1.711985
v -2.545171 11.76609 1.711985

vn 0.1649096 -1.965876E-08 0.3622445
vn 0.1649096 -1.965876E-08 0.3622445
vn 0.1649096 -1.965876E-08 0.3622445
vn 0.01987599 -0.3975186 0
vn 0.01987599 -0.3975186 0
vn 0.01987599 -0.3975186 0
vn 0.01987599 -0.3975186 0
vn -0.22745 2.711415E-08 -0.3266233
vn -0.22745 2.711415E-08 -0.3266233
vn -0.22745 2.711415E-08 -0.3266233
vn 0.0198759 0.3975186 0
vn 0.0198759 0.3975186 0
vn 0.0198759 0.3975186 0
vn 0.0198759 0.3975186 0
vn -0.3980155 4.744714E-08 0
vn -0.3980155 4.744714E-08 0
vn -0.3980155 4.744714E-08 0
vn -0.3980155 4.744714E-08 0

vt 0 0
vt 0.1 0
vt 0.05 1.098748
vt 0 -0.004993762
vt 1 -0.004993762
vt 0.4552438 0.9962555
vt 1.696368 0.9962555
vt -0.1 0.5714602
vt 0 0.5714602
vt -0.05 1.790036
vt -1 0
vt 0 0
vt -1.696368 1.001249
vt -0.4552438 1.001249
vt 0 0
vt -0.1 0
vt 0 1
vt -0.1 1

g Prism (3)_0
usemtl Wooden
f 181/181/181 180/180/180 178/178/178 179/179/179
f 188/188/188 187/187/187 185/185/185 186/186/186
f 191/191/191 192/192/192 190/190/190 189/189/189

g Prism (3)_1
usemtl Wooden
f 175/175/175 176/176/176 177/177/177
f 182/182/182 183/183/183 184/184/184

